<svg width="104" height="33" viewBox="0 0 104 33" fill="none" xmlns="http://www.w3.org/2000/svg">
<path d="M1.872 7.008H5.616V14.064L12.216 7.008H17.112L9.552 14.904L17.76 24H12.528L5.616 15.936V24H1.872V7.008ZM25.9123 22.536H25.8643C25.4643 23.16 24.9283 23.608 24.2563 23.88C23.6003 24.152 22.9043 24.288 22.1683 24.288C21.6243 24.288 21.0963 24.208 20.5843 24.048C20.0883 23.904 19.6483 23.68 19.2643 23.376C18.8803 23.072 18.5763 22.696 18.3523 22.248C18.1283 21.8 18.0163 21.28 18.0163 20.688C18.0163 20.016 18.1363 19.448 18.3763 18.984C18.6323 18.52 18.9683 18.136 19.3843 17.832C19.8163 17.528 20.3043 17.296 20.8483 17.136C21.3923 16.96 21.9523 16.832 22.5283 16.752C23.1203 16.672 23.7043 16.624 24.2803 16.608C24.8723 16.592 25.4163 16.584 25.9123 16.584C25.9123 15.944 25.6803 15.44 25.2163 15.072C24.7683 14.688 24.2323 14.496 23.6083 14.496C23.0163 14.496 22.4723 14.624 21.9763 14.88C21.4963 15.12 21.0643 15.456 20.6803 15.888L18.7603 13.92C19.4323 13.296 20.2163 12.832 21.1123 12.528C22.0083 12.208 22.9363 12.048 23.8963 12.048C24.9523 12.048 25.8163 12.184 26.4883 12.456C27.1763 12.712 27.7203 13.096 28.1203 13.608C28.5363 14.12 28.8243 14.752 28.9843 15.504C29.1443 16.24 29.2243 17.096 29.2243 18.072V24H25.9123V22.536ZM25.0243 18.888C24.7523 18.888 24.4083 18.904 23.9923 18.936C23.5923 18.952 23.2003 19.016 22.8163 19.128C22.4483 19.24 22.1283 19.408 21.8563 19.632C21.6003 19.856 21.4723 20.168 21.4723 20.568C21.4723 21 21.6563 21.32 22.0243 21.528C22.3923 21.736 22.7763 21.84 23.1763 21.84C23.5283 21.84 23.8643 21.792 24.1843 21.696C24.5203 21.6 24.8163 21.464 25.0723 21.288C25.3283 21.112 25.5283 20.888 25.6723 20.616C25.8323 20.344 25.9123 20.024 25.9123 19.656V18.888H25.0243ZM31.8189 12.336H35.1309V13.872H35.1789C35.3229 13.664 35.5069 13.456 35.7309 13.248C35.9709 13.024 36.2429 12.824 36.5469 12.648C36.8669 12.472 37.2109 12.328 37.5789 12.216C37.9469 12.104 38.3389 12.048 38.7549 12.048C39.6189 12.048 40.4029 12.2 41.1069 12.504C41.8109 12.792 42.4109 13.208 42.9069 13.752C43.4189 14.28 43.8109 14.912 44.0829 15.648C44.3549 16.384 44.4909 17.192 44.4909 18.072C44.4909 18.888 44.3629 19.672 44.1069 20.424C43.8669 21.16 43.5149 21.816 43.0509 22.392C42.6029 22.968 42.0509 23.432 41.3949 23.784C40.7389 24.12 39.9949 24.288 39.1629 24.288C38.4109 24.288 37.7069 24.176 37.0509 23.952C36.4109 23.712 35.8829 23.312 35.4669 22.752H35.4189V29.472H31.8189V12.336ZM35.1309 18.168C35.1309 19.048 35.3789 19.76 35.8749 20.304C36.3869 20.848 37.0989 21.12 38.0109 21.12C38.9229 21.12 39.6269 20.848 40.1229 20.304C40.6349 19.76 40.8909 19.048 40.8909 18.168C40.8909 17.288 40.6349 16.576 40.1229 16.032C39.6269 15.488 38.9229 15.216 38.0109 15.216C37.0989 15.216 36.3869 15.488 35.8749 16.032C35.3789 16.576 35.1309 17.288 35.1309 18.168ZM46.6481 12.336H50.2481V24H46.6481V12.336ZM46.3601 8.664C46.3601 8.088 46.5601 7.6 46.9601 7.2C47.3761 6.784 47.8721 6.576 48.4481 6.576C49.0241 6.576 49.5121 6.784 49.9121 7.2C50.3281 7.6 50.5361 8.088 50.5361 8.664C50.5361 9.24 50.3281 9.736 49.9121 10.152C49.5121 10.552 49.0241 10.752 48.4481 10.752C47.8721 10.752 47.3761 10.552 46.9601 10.152C46.5601 9.736 46.3601 9.24 46.3601 8.664ZM65.0745 24H61.7625V22.464H61.7145C61.5705 22.672 61.3785 22.888 61.1385 23.112C60.9145 23.32 60.6425 23.512 60.3225 23.688C60.0185 23.864 59.6745 24.008 59.2905 24.12C58.9225 24.232 58.5385 24.288 58.1385 24.288C57.2745 24.288 56.4905 24.144 55.7865 23.856C55.0825 23.552 54.4745 23.136 53.9625 22.608C53.4665 22.064 53.0825 21.424 52.8105 20.688C52.5385 19.952 52.4025 19.144 52.4025 18.264C52.4025 17.448 52.5225 16.672 52.7625 15.936C53.0185 15.184 53.3705 14.52 53.8185 13.944C54.2825 13.368 54.8425 12.912 55.4985 12.576C56.1545 12.224 56.8985 12.048 57.7305 12.048C58.4825 12.048 59.1785 12.168 59.8185 12.408C60.4745 12.632 61.0105 13.024 61.4265 13.584H61.4745V5.856H65.0745V24ZM61.7625 18.168C61.7625 17.288 61.5065 16.576 60.9945 16.032C60.4985 15.488 59.7945 15.216 58.8825 15.216C57.9705 15.216 57.2585 15.488 56.7465 16.032C56.2505 16.576 56.0025 17.288 56.0025 18.168C56.0025 19.048 56.2505 19.76 56.7465 20.304C57.2585 20.848 57.9705 21.12 58.8825 21.12C59.7945 21.12 60.4985 20.848 60.9945 20.304C61.5065 19.76 61.7625 19.048 61.7625 18.168ZM67.5197 18.168C67.5197 17.24 67.6877 16.4 68.0237 15.648C68.3597 14.896 68.8157 14.256 69.3917 13.728C69.9837 13.184 70.6717 12.768 71.4557 12.48C72.2557 12.192 73.1037 12.048 73.9997 12.048C74.8957 12.048 75.7357 12.192 76.5197 12.48C77.3197 12.768 78.0077 13.184 78.5837 13.728C79.1757 14.256 79.6397 14.896 79.9757 15.648C80.3117 16.4 80.4797 17.24 80.4797 18.168C80.4797 19.096 80.3117 19.936 79.9757 20.688C79.6397 21.44 79.1757 22.088 78.5837 22.632C78.0077 23.16 77.3197 23.568 76.5197 23.856C75.7357 24.144 74.8957 24.288 73.9997 24.288C73.1037 24.288 72.2557 24.144 71.4557 23.856C70.6717 23.568 69.9837 23.16 69.3917 22.632C68.8157 22.088 68.3597 21.44 68.0237 20.688C67.6877 19.936 67.5197 19.096 67.5197 18.168ZM71.1197 18.168C71.1197 19.048 71.3677 19.76 71.8637 20.304C72.3757 20.848 73.0877 21.12 73.9997 21.12C74.9117 21.12 75.6157 20.848 76.1117 20.304C76.6237 19.76 76.8797 19.048 76.8797 18.168C76.8797 17.288 76.6237 16.576 76.1117 16.032C75.6157 15.488 74.9117 15.216 73.9997 15.216C73.0877 15.216 72.3757 15.488 71.8637 16.032C71.3677 16.576 71.1197 17.288 71.1197 18.168ZM82.1681 18.168C82.1681 17.24 82.3361 16.4 82.6721 15.648C83.0081 14.896 83.4641 14.256 84.0401 13.728C84.6321 13.184 85.3201 12.768 86.1041 12.48C86.9041 12.192 87.7521 12.048 88.6481 12.048C89.5441 12.048 90.3841 12.192 91.1681 12.48C91.9681 12.768 92.6561 13.184 93.2321 13.728C93.8241 14.256 94.2881 14.896 94.6241 15.648C94.9601 16.4 95.1281 17.24 95.1281 18.168C95.1281 19.096 94.9601 19.936 94.6241 20.688C94.2881 21.44 93.8241 22.088 93.2321 22.632C92.6561 23.16 91.9681 23.568 91.1681 23.856C90.3841 24.144 89.5441 24.288 88.6481 24.288C87.7521 24.288 86.9041 24.144 86.1041 23.856C85.3201 23.568 84.6321 23.16 84.0401 22.632C83.4641 22.088 83.0081 21.44 82.6721 20.688C82.3361 19.936 82.1681 19.096 82.1681 18.168ZM85.7681 18.168C85.7681 19.048 86.0161 19.76 86.5121 20.304C87.0241 20.848 87.7361 21.12 88.6481 21.12C89.5601 21.12 90.2641 20.848 90.7601 20.304C91.2721 19.76 91.5281 19.048 91.5281 18.168C91.5281 17.288 91.2721 16.576 90.7601 16.032C90.2641 15.488 89.5601 15.216 88.6481 15.216C87.7361 15.216 87.0241 15.488 86.5121 16.032C86.0161 16.576 85.7681 17.288 85.7681 18.168Z" fill="#1E266D"/>
<path d="M97.3206 21.936C97.3206 21.632 97.3766 21.344 97.4886 21.072C97.6006 20.8 97.7526 20.568 97.9446 20.376C98.1526 20.168 98.3926 20.008 98.6646 19.896C98.9366 19.784 99.2246 19.728 99.5286 19.728C99.8326 19.728 100.121 19.784 100.393 19.896C100.665 20.008 100.897 20.168 101.089 20.376C101.297 20.568 101.457 20.8 101.569 21.072C101.681 21.344 101.737 21.632 101.737 21.936C101.737 22.24 101.681 22.528 101.569 22.8C101.457 23.072 101.297 23.312 101.089 23.52C100.897 23.712 100.665 23.864 100.393 23.976C100.121 24.088 99.8326 24.144 99.5286 24.144C99.2246 24.144 98.9366 24.088 98.6646 23.976C98.3926 23.864 98.1526 23.712 97.9446 23.52C97.7526 23.312 97.6006 23.072 97.4886 22.8C97.3766 22.528 97.3206 22.24 97.3206 21.936ZM97.3206 14.256C97.3206 13.952 97.3766 13.664 97.4886 13.392C97.6006 13.12 97.7526 12.888 97.9446 12.696C98.1526 12.488 98.3926 12.328 98.6646 12.216C98.9366 12.104 99.2246 12.048 99.5286 12.048C99.8326 12.048 100.121 12.104 100.393 12.216C100.665 12.328 100.897 12.488 101.089 12.696C101.297 12.888 101.457 13.12 101.569 13.392C101.681 13.664 101.737 13.952 101.737 14.256C101.737 14.56 101.681 14.848 101.569 15.12C101.457 15.392 101.297 15.632 101.089 15.84C100.897 16.032 100.665 16.184 100.393 16.296C100.121 16.408 99.8326 16.464 99.5286 16.464C99.2246 16.464 98.9366 16.408 98.6646 16.296C98.3926 16.184 98.1526 16.032 97.9446 15.84C97.7526 15.632 97.6006 15.392 97.4886 15.12C97.3766 14.848 97.3206 14.56 97.3206 14.256Z" fill="#FF2E6A"/>
</svg>